<svg width="118" height="16" viewBox="0 0 118 16" fill="none" xmlns="http://www.w3.org/2000/svg">
<path d="M10.0859 8.21094C9.9974 9.4349 9.54427 10.3984 8.72656 11.1016C7.91406 11.8047 6.84115 12.1562 5.50781 12.1562C4.04948 12.1562 2.90104 11.6667 2.0625 10.6875C1.22917 9.70312 0.8125 8.35417 0.8125 6.64062V5.94531C0.8125 4.85156 1.00521 3.88802 1.39062 3.05469C1.77604 2.22135 2.32552 1.58333 3.03906 1.14062C3.75781 0.692708 4.59115 0.46875 5.53906 0.46875C6.85156 0.46875 7.90885 0.820312 8.71094 1.52344C9.51302 2.22656 9.97656 3.21354 10.1016 4.48438H7.75781C7.70052 3.75 7.49479 3.21875 7.14062 2.89062C6.79167 2.55729 6.25781 2.39062 5.53906 2.39062C4.75781 2.39062 4.17188 2.67188 3.78125 3.23438C3.39583 3.79167 3.19792 4.65885 3.1875 5.83594V6.69531C3.1875 7.92448 3.3724 8.82292 3.74219 9.39062C4.11719 9.95833 4.70573 10.2422 5.50781 10.2422C6.23177 10.2422 6.77083 10.0781 7.125 9.75C7.48438 9.41667 7.6901 8.90365 7.74219 8.21094H10.0859ZM11.125 7.69531C11.125 6.85677 11.2865 6.10938 11.6094 5.45312C11.9323 4.79688 12.3958 4.28906 13 3.92969C13.6094 3.57031 14.3151 3.39062 15.1172 3.39062C16.2578 3.39062 17.1875 3.73958 17.9062 4.4375C18.6302 5.13542 19.0339 6.08333 19.1172 7.28125L19.1328 7.85938C19.1328 9.15625 18.7708 10.1979 18.0469 10.9844C17.3229 11.7656 16.3516 12.1562 15.1328 12.1562C13.9141 12.1562 12.9401 11.7656 12.2109 10.9844C11.487 10.2031 11.125 9.14062 11.125 7.79688V7.69531ZM13.3828 7.85938C13.3828 8.66146 13.5339 9.27604 13.8359 9.70312C14.138 10.125 14.5703 10.3359 15.1328 10.3359C15.6797 10.3359 16.1068 10.1276 16.4141 9.71094C16.7214 9.28906 16.875 8.61719 16.875 7.69531C16.875 6.90885 16.7214 6.29948 16.4141 5.86719C16.1068 5.4349 15.6745 5.21875 15.1172 5.21875C14.5651 5.21875 14.138 5.4349 13.8359 5.86719C13.5339 6.29427 13.3828 6.95833 13.3828 7.85938ZM22.6016 3.54688L22.6719 4.52344C23.276 3.76823 24.0859 3.39062 25.1016 3.39062C25.9974 3.39062 26.6641 3.65365 27.1016 4.17969C27.5391 4.70573 27.763 5.49219 27.7734 6.53906V12H25.5156V6.59375C25.5156 6.11458 25.4115 5.76823 25.2031 5.55469C24.9948 5.33594 24.6484 5.22656 24.1641 5.22656C23.5286 5.22656 23.0521 5.4974 22.7344 6.03906V12H20.4766V3.54688H22.6016ZM32.1953 1.46875V3.54688H33.6406V5.20312H32.1953V9.42188C32.1953 9.73438 32.2552 9.95833 32.375 10.0938C32.4948 10.2292 32.724 10.2969 33.0625 10.2969C33.3125 10.2969 33.5339 10.2786 33.7266 10.2422V11.9531C33.2839 12.0885 32.8281 12.1562 32.3594 12.1562C30.776 12.1562 29.9688 11.3568 29.9375 9.75781V5.20312H28.7031V3.54688H29.9375V1.46875H32.1953ZM39.7969 12C39.6927 11.7969 39.6172 11.5443 39.5703 11.2422C39.0234 11.8516 38.3125 12.1562 37.4375 12.1562C36.6094 12.1562 35.9219 11.9167 35.375 11.4375C34.8333 10.9583 34.5625 10.3542 34.5625 9.625C34.5625 8.72917 34.8932 8.04167 35.5547 7.5625C36.2214 7.08333 37.1823 6.84115 38.4375 6.83594H39.4766V6.35156C39.4766 5.96094 39.375 5.64844 39.1719 5.41406C38.974 5.17969 38.6589 5.0625 38.2266 5.0625C37.8464 5.0625 37.5469 5.15365 37.3281 5.33594C37.1146 5.51823 37.0078 5.76823 37.0078 6.08594H34.75C34.75 5.59635 34.901 5.14323 35.2031 4.72656C35.5052 4.3099 35.9323 3.98438 36.4844 3.75C37.0365 3.51042 37.6562 3.39062 38.3438 3.39062C39.3854 3.39062 40.2109 3.65365 40.8203 4.17969C41.4349 4.70052 41.7422 5.4349 41.7422 6.38281V10.0469C41.7474 10.849 41.8594 11.4557 42.0781 11.8672V12H39.7969ZM37.9297 10.4297C38.263 10.4297 38.5703 10.3568 38.8516 10.2109C39.1328 10.0599 39.3411 9.85938 39.4766 9.60938V8.15625H38.6328C37.5026 8.15625 36.901 8.54688 36.8281 9.32812L36.8203 9.46094C36.8203 9.74219 36.9193 9.97396 37.1172 10.1562C37.3151 10.3385 37.5859 10.4297 37.9297 10.4297ZM46.9922 10.3359C47.4089 10.3359 47.7474 10.2214 48.0078 9.99219C48.2682 9.76302 48.4036 9.45833 48.4141 9.07812H50.5312C50.526 9.65104 50.3698 10.1771 50.0625 10.6562C49.7552 11.1302 49.3333 11.5 48.7969 11.7656C48.2656 12.026 47.6771 12.1562 47.0312 12.1562C45.8229 12.1562 44.8698 11.7734 44.1719 11.0078C43.474 10.237 43.125 9.17448 43.125 7.82031V7.67188C43.125 6.36979 43.4714 5.33073 44.1641 4.55469C44.8568 3.77865 45.8073 3.39062 47.0156 3.39062C48.0729 3.39062 48.9193 3.69271 49.5547 4.29688C50.1953 4.89583 50.5208 5.69531 50.5312 6.69531H48.4141C48.4036 6.25781 48.2682 5.90365 48.0078 5.63281C47.7474 5.35677 47.4036 5.21875 46.9766 5.21875C46.4505 5.21875 46.0521 5.41146 45.7812 5.79688C45.5156 6.17708 45.3828 6.79688 45.3828 7.65625V7.89062C45.3828 8.76042 45.5156 9.38542 45.7812 9.76562C46.0469 10.1458 46.4505 10.3359 46.9922 10.3359ZM54.5234 1.46875V3.54688H55.9688V5.20312H54.5234V9.42188C54.5234 9.73438 54.5833 9.95833 54.7031 10.0938C54.8229 10.2292 55.0521 10.2969 55.3906 10.2969C55.6406 10.2969 55.862 10.2786 56.0547 10.2422V11.9531C55.612 12.0885 55.1562 12.1562 54.6875 12.1562C53.1042 12.1562 52.2969 11.3568 52.2656 9.75781V5.20312H51.0312V3.54688H52.2656V1.46875H54.5234ZM67.2578 9.01562C67.2578 8.57292 67.1016 8.23438 66.7891 8C66.4766 7.76042 65.9141 7.51042 65.1016 7.25C64.2891 6.98438 63.6458 6.72396 63.1719 6.46875C61.8802 5.77083 61.2344 4.83073 61.2344 3.64844C61.2344 3.03385 61.4062 2.48698 61.75 2.00781C62.099 1.52344 62.5964 1.14583 63.2422 0.875C63.8932 0.604167 64.6224 0.46875 65.4297 0.46875C66.2422 0.46875 66.9661 0.617188 67.6016 0.914062C68.237 1.20573 68.7292 1.61979 69.0781 2.15625C69.4323 2.69271 69.6094 3.30208 69.6094 3.98438H67.2656C67.2656 3.46354 67.1016 3.0599 66.7734 2.77344C66.4453 2.48177 65.9844 2.33594 65.3906 2.33594C64.8177 2.33594 64.3724 2.45833 64.0547 2.70312C63.737 2.94271 63.5781 3.26042 63.5781 3.65625C63.5781 4.02604 63.763 4.33594 64.1328 4.58594C64.5078 4.83594 65.0573 5.07031 65.7812 5.28906C67.1146 5.6901 68.0859 6.1875 68.6953 6.78125C69.3047 7.375 69.6094 8.11458 69.6094 9C69.6094 9.98438 69.237 10.7578 68.4922 11.3203C67.7474 11.8776 66.7448 12.1562 65.4844 12.1562C64.6094 12.1562 63.8125 11.9974 63.0938 11.6797C62.375 11.3568 61.8255 10.9167 61.4453 10.3594C61.0703 9.80208 60.8828 9.15625 60.8828 8.42188H63.2344C63.2344 9.67708 63.9844 10.3047 65.4844 10.3047C66.0417 10.3047 66.4766 10.1927 66.7891 9.96875C67.1016 9.73958 67.2578 9.42188 67.2578 9.01562ZM76.1172 11.1406C75.5599 11.8177 74.7891 12.1562 73.8047 12.1562C72.8984 12.1562 72.2057 11.8958 71.7266 11.375C71.2526 10.8542 71.0104 10.0911 71 9.08594V3.54688H73.2578V9.00781C73.2578 9.88802 73.6589 10.3281 74.4609 10.3281C75.2266 10.3281 75.7526 10.0625 76.0391 9.53125V3.54688H78.3047V12H76.1797L76.1172 11.1406ZM87.6172 7.85156C87.6172 9.15365 87.3203 10.1979 86.7266 10.9844C86.138 11.7656 85.3411 12.1562 84.3359 12.1562C83.4818 12.1562 82.7917 11.8594 82.2656 11.2656V15.25H80.0078V3.54688H82.1016L82.1797 4.375C82.7266 3.71875 83.4401 3.39062 84.3203 3.39062C85.362 3.39062 86.1719 3.77604 86.75 4.54688C87.3281 5.31771 87.6172 6.38021 87.6172 7.73438V7.85156ZM85.3594 7.6875C85.3594 6.90104 85.2188 6.29427 84.9375 5.86719C84.6615 5.4401 84.2578 5.22656 83.7266 5.22656C83.0182 5.22656 82.5312 5.4974 82.2656 6.03906V9.5C82.5417 10.0573 83.0339 10.3359 83.7422 10.3359C84.8203 10.3359 85.3594 9.45312 85.3594 7.6875ZM96.6328 7.85156C96.6328 9.15365 96.3359 10.1979 95.7422 10.9844C95.1536 11.7656 94.3568 12.1562 93.3516 12.1562C92.4974 12.1562 91.8073 11.8594 91.2812 11.2656V15.25H89.0234V3.54688H91.1172L91.1953 4.375C91.7422 3.71875 92.4557 3.39062 93.3359 3.39062C94.3776 3.39062 95.1875 3.77604 95.7656 4.54688C96.3438 5.31771 96.6328 6.38021 96.6328 7.73438V7.85156ZM94.375 7.6875C94.375 6.90104 94.2344 6.29427 93.9531 5.86719C93.6771 5.4401 93.2734 5.22656 92.7422 5.22656C92.0339 5.22656 91.5469 5.4974 91.2812 6.03906V9.5C91.5573 10.0573 92.0495 10.3359 92.7578 10.3359C93.8359 10.3359 94.375 9.45312 94.375 7.6875ZM97.6875 7.69531C97.6875 6.85677 97.849 6.10938 98.1719 5.45312C98.4948 4.79688 98.9583 4.28906 99.5625 3.92969C100.172 3.57031 100.878 3.39062 101.68 3.39062C102.82 3.39062 103.75 3.73958 104.469 4.4375C105.193 5.13542 105.596 6.08333 105.68 7.28125L105.695 7.85938C105.695 9.15625 105.333 10.1979 104.609 10.9844C103.885 11.7656 102.914 12.1562 101.695 12.1562C100.477 12.1562 99.5026 11.7656 98.7734 10.9844C98.0495 10.2031 97.6875 9.14062 97.6875 7.79688V7.69531ZM99.9453 7.85938C99.9453 8.66146 100.096 9.27604 100.398 9.70312C100.701 10.125 101.133 10.3359 101.695 10.3359C102.242 10.3359 102.669 10.1276 102.977 9.71094C103.284 9.28906 103.438 8.61719 103.438 7.69531C103.438 6.90885 103.284 6.29948 102.977 5.86719C102.669 5.4349 102.237 5.21875 101.68 5.21875C101.128 5.21875 100.701 5.4349 100.398 5.86719C100.096 6.29427 99.9453 6.95833 99.9453 7.85938ZM111.836 5.66406C111.529 5.6224 111.258 5.60156 111.023 5.60156C110.169 5.60156 109.609 5.89062 109.344 6.46875V12H107.086V3.54688H109.219L109.281 4.55469C109.734 3.77865 110.362 3.39062 111.164 3.39062C111.414 3.39062 111.648 3.42448 111.867 3.49219L111.836 5.66406ZM116.023 1.46875V3.54688H117.469V5.20312H116.023V9.42188C116.023 9.73438 116.083 9.95833 116.203 10.0938C116.323 10.2292 116.552 10.2969 116.891 10.2969C117.141 10.2969 117.362 10.2786 117.555 10.2422V11.9531C117.112 12.0885 116.656 12.1562 116.188 12.1562C114.604 12.1562 113.797 11.3568 113.766 9.75781V5.20312H112.531V3.54688H113.766V1.46875H116.023Z" fill="#4A4A4A"/>
</svg>
